<svg width="479" height="463" viewBox="0 0 479 463" fill="none" xmlns="http://www.w3.org/2000/svg">
<path fill-rule="evenodd" clip-rule="evenodd" d="M250.254 37.8972L297.75 215.153C299.079 220.089 300.954 227.052 301.776 233.436C302.813 241.482 303.057 254.208 295.569 267.177C288.081 280.146 276.938 286.299 269.452 289.424C263.512 291.903 256.545 293.761 251.605 295.078L74.3266 342.579C108.75 413.632 181.557 462.629 265.807 462.629C383.249 462.629 478.453 367.424 478.453 249.983C478.453 132.542 383.249 37.337 265.807 37.337C260.577 37.337 255.39 37.5259 250.254 37.8972Z" fill="white"/>
<path d="M210.771 44.5834C204.1 19.6885 200.765 7.24107 189.277 2.06132C177.789 -3.11843 167.651 1.92741 147.374 12.0191C132.114 19.614 117.583 28.6775 103.994 39.1044C76.3011 60.354 53.0646 86.8502 35.6115 117.08C18.1583 147.31 6.83022 180.681 2.27403 215.289C0.0383689 232.27 -0.545321 249.386 0.507411 266.4C1.90621 289.006 2.60562 300.309 12.8353 307.668C23.0649 315.026 35.5124 311.691 60.4072 305.02L214.457 263.743C238.664 257.257 250.767 254.014 256.272 244.479C261.777 234.944 258.534 222.84 252.048 198.634L210.771 44.5834Z" fill="#B3CADC"/>
</svg>
