<svg width="60" height="72" viewBox="0 0 60 72" fill="none" xmlns="http://www.w3.org/2000/svg">
<path d="M12.5985 32.6507C13.6879 34.5375 15.0181 36.0845 16.5929 37.2919C18.1645 38.5 19.8642 39.3489 21.6895 39.8388C23.5149 40.3287 25.3953 40.4538 27.3311 40.2126C29.2684 39.9719 31.1351 39.3312 32.9338 38.2927C34.7334 37.2537 36.2216 35.9575 37.3987 34.4001C38.5755 32.8442 39.4147 31.1489 39.9178 29.3147C40.4191 27.4815 40.5484 25.5767 40.3036 23.6026C40.0573 21.6281 39.3909 19.6978 38.3015 17.811C37.2117 15.9233 35.8727 14.3801 34.2864 13.1805C32.6992 11.9814 30.9849 11.141 29.1467 10.6586C27.3066 10.1772 25.4194 10.0572 23.4831 10.2974C21.5463 10.5391 19.679 11.1789 17.8794 12.2179C16.0808 13.2563 14.5931 14.5535 13.4154 16.11C12.2392 17.6668 11.4068 19.3569 10.9184 21.1827C10.43 23.0084 10.3153 24.9048 10.5758 26.8698C10.8335 28.8365 11.5086 30.7629 12.5985 32.6507ZM59.0838 51.729L49.5304 57.2447L55.0524 66.8092L46.7853 71.5822L41.2632 62.0177L31.6675 67.5578L26.8643 59.2384L36.46 53.6983L33.3647 48.3371C30.6447 49.2979 27.8642 49.7598 25.0248 49.7207C22.1855 49.6841 19.4593 49.1989 16.8466 48.2675C14.2329 47.3366 11.8147 45.9685 9.59273 44.1639C7.3707 42.3593 5.51649 40.1697 4.03115 37.597C2.36398 34.7094 1.36227 31.6555 1.02707 28.4371C0.6924 25.2197 0.943056 22.0916 1.77865 19.0542C2.61477 16.0178 4.01019 13.1909 5.96596 10.5756C7.91937 7.96034 10.3392 5.82014 13.2241 4.15456C16.109 2.48898 19.1724 1.46342 22.4158 1.07827C25.6577 0.692736 28.8099 0.893971 31.8732 1.67908C34.9352 2.46617 37.7834 3.80521 40.4171 5.69528C43.0514 7.58627 45.2017 9.97702 46.8689 12.8646C48.3543 15.4373 49.3191 18.1306 49.7624 20.9425C50.2063 23.7553 50.1852 26.522 49.6992 29.2425C49.2141 31.9624 48.2845 34.557 46.9123 37.0276C45.5396 39.4973 43.7711 41.663 41.6069 43.521L44.7271 48.9253L54.2806 43.4095L59.0838 51.729Z" fill="#FF5B72" fill-opacity="0.2"/>
</svg>
