<svg width="20" height="18" viewBox="0 0 20 18" fill="none" xmlns="http://www.w3.org/2000/svg">
<path d="M3.15234 16.079V15.5126H1.67676C0.986516 15.5126 0.426943 14.9528 0.426758 14.2626C0.426758 13.5722 0.986402 13.0126 1.67676 13.0126H3.15234V12.4452C3.15234 11.7548 3.71199 11.1952 4.40234 11.1952C5.0927 11.1952 5.65234 11.7548 5.65234 12.4452V16.079C5.65234 16.7693 5.0927 17.329 4.40234 17.329C3.71199 17.329 3.15234 16.7693 3.15234 16.079ZM18.0303 13.0126L18.1582 13.0184C18.7885 13.0825 19.2803 13.6154 19.2803 14.2626C19.2801 14.9096 18.7883 15.4417 18.1582 15.5057L18.0303 15.5126H8.03613C7.34604 15.5124 6.78632 14.9527 6.78613 14.2626C6.78613 13.5723 7.34592 13.0127 8.03613 13.0126H18.0303ZM12.2373 10.6278V10.0614H1.67676C0.986514 10.0614 0.426939 9.5016 0.426758 8.8114C0.426758 8.12105 0.986402 7.5614 1.67676 7.5614H12.2373V6.99402C12.2373 6.30377 12.7971 5.74419 13.4873 5.74402C14.1777 5.74402 14.7373 6.30366 14.7373 6.99402V10.6278C14.7373 11.3182 14.1777 11.8778 13.4873 11.8778C12.7971 11.8776 12.2373 11.3181 12.2373 10.6278ZM18.0303 7.5614L18.1582 7.56726C18.7885 7.63133 19.2803 8.16423 19.2803 8.8114C19.2801 9.45841 18.7883 9.99049 18.1582 10.0546L18.0303 10.0614H17.1221C16.4318 10.0614 15.8723 9.5016 15.8721 8.8114C15.8721 8.12105 16.4317 7.5614 17.1221 7.5614H18.0303ZM6.78613 5.17664V4.61023H1.67676C0.986511 4.61023 0.426935 4.05043 0.426758 3.36023C0.426758 2.66987 0.986402 2.11023 1.67676 2.11023H6.78613V1.54285C6.78613 0.852596 7.34592 0.293018 8.03613 0.292847C8.72649 0.292847 9.28613 0.852491 9.28613 1.54285V5.17664C9.28613 5.86699 8.72649 6.42664 8.03613 6.42664C7.34592 6.42646 6.78613 5.86689 6.78613 5.17664ZM18.0303 2.11023L18.1582 2.11609C18.7885 2.18016 19.2803 2.71306 19.2803 3.36023C19.2801 4.00724 18.7883 4.53932 18.1582 4.60339L18.0303 4.61023H11.6709C10.9807 4.61023 10.4211 4.05043 10.4209 3.36023C10.4209 2.66987 10.9805 2.11023 11.6709 2.11023H18.0303Z" fill="white"/>
</svg>
