<svg width="559" height="502" viewBox="0 0 559 502" fill="none" xmlns="http://www.w3.org/2000/svg">
<path fill-rule="evenodd" clip-rule="evenodd" d="M223.263 0C237.07 0 248.263 11.1929 248.263 25V137.941C248.263 151.748 237.07 162.941 223.263 162.941C209.456 162.941 198.263 151.748 198.263 137.941V106.47H25.6167C11.8096 106.47 0.616699 95.2775 0.616699 81.4703C0.616699 67.6632 11.8096 56.4703 25.6167 56.4703H198.263V25C198.263 11.1929 209.456 0 223.263 0ZM311.204 81.4703C311.204 67.6632 322.396 56.4703 336.204 56.4703H533.85C547.657 56.4703 558.85 67.6632 558.85 81.4703C558.85 95.2775 547.657 106.47 533.85 106.47H336.204C322.396 106.47 311.204 95.2775 311.204 81.4703ZM392.674 169.411C406.481 169.411 417.674 180.604 417.674 194.411V307.352C417.674 321.159 406.481 332.352 392.674 332.352C378.867 332.352 367.674 321.159 367.674 307.352V275.881H25.6167C11.8096 275.881 0.616699 264.688 0.616699 250.881C0.616699 237.074 11.8096 225.881 25.6167 225.881H367.674V194.411C367.674 180.604 378.867 169.411 392.674 169.411ZM480.615 250.881C480.615 237.074 491.807 225.881 505.615 225.881H533.85C547.657 225.881 558.85 237.074 558.85 250.881C558.85 264.688 547.657 275.881 533.85 275.881H505.615C491.807 275.881 480.615 264.688 480.615 250.881ZM110.322 338.822C124.129 338.822 135.322 350.015 135.322 363.822V476.763C135.322 490.57 124.129 501.763 110.322 501.763C96.5151 501.763 85.3222 490.57 85.3222 476.763V445.292H25.6167C11.8096 445.292 0.616699 434.099 0.616699 420.292C0.616699 406.485 11.8096 395.292 25.6167 395.292H85.3222V363.822C85.3222 350.015 96.5151 338.822 110.322 338.822ZM198.263 420.292C198.263 406.485 209.456 395.292 223.263 395.292H533.85C547.657 395.292 558.85 406.485 558.85 420.292C558.85 434.099 547.657 445.292 533.85 445.292H223.263C209.456 445.292 198.263 434.099 198.263 420.292Z" fill="#2CC295"/>
</svg>
