<svg width="59" height="72" viewBox="0 0 59 72" fill="none" xmlns="http://www.w3.org/2000/svg">
<path fill-rule="evenodd" clip-rule="evenodd" d="M47.4399 56.9174L40.2279 44.439C49.3175 37.2509 52.0021 24.288 46.0311 13.9548C39.464 2.60428 24.9079 -1.29601 13.5454 5.25029C2.1834 11.7975 -1.7141 26.3432 4.85206 37.6943C10.826 48.0283 23.4135 52.1852 34.1929 47.9195L41.2211 60.0729L32.1867 57.653L30.3852 64.3762L51.2699 69.973L56.6826 48.9967L49.9311 47.262L47.4399 56.9174ZM17.0321 11.2829C25.0651 6.65138 35.3543 9.40836 39.9962 17.4353C44.6366 25.4619 41.8836 35.7361 33.8516 40.3671C25.8181 44.9977 15.5289 42.2407 10.8885 34.2142C6.24657 26.1872 8.99955 15.9129 17.0321 11.2829Z" fill="#5DB7FF" fill-opacity="0.3"/>
<path d="M13.4841 3.85246C25.3578 -2.59314 40.3091 1.56809 47.1135 13.3288L47.4016 13.8414C53.131 24.3068 50.5886 37.1665 41.8378 44.7281L46.9924 53.6464L49.0328 45.7409L58.2054 48.0972L52.1644 71.507L28.8543 65.2596L31.3028 56.1216L38.6261 58.0832L33.6369 49.4573C22.7045 53.2432 10.279 49.0164 4.06957 38.8253L3.76971 38.3196C-3.14203 26.3703 0.960895 11.0593 12.9215 4.16712L13.4841 3.85246ZM13.5454 5.25029C2.1834 11.7975 -1.7141 26.3432 4.85206 37.6943C10.826 48.0283 23.4135 52.1852 34.1929 47.9195L41.2211 60.0729L32.1867 57.653L30.3852 64.3762L51.2699 69.973L56.6826 48.9967L49.9311 47.262L47.4399 56.9174L40.2279 44.439C49.3175 37.2509 52.0021 24.288 46.0311 13.9548C39.464 2.60428 24.9079 -1.29601 13.5454 5.25029ZM17.0321 11.2829C25.0651 6.65138 35.3543 9.40836 39.9962 17.4353C44.6366 25.4619 41.8836 35.7361 33.8516 40.3671C25.8181 44.9977 15.5289 42.2407 10.8885 34.2142C6.24657 26.1872 8.99955 15.9129 17.0321 11.2829ZM17.3111 12.5709C10.1446 16.9478 7.74186 26.2757 11.9705 33.5882L12.1754 33.9334C16.5625 41.096 25.9068 43.5027 33.2266 39.2838C40.6599 34.998 43.2087 25.4897 38.9146 18.0614L38.7088 17.7167C34.3202 10.5532 24.9755 8.14594 17.6563 12.366L17.3111 12.5709Z" fill="#5DB7FF" fill-opacity="0.3"/>
</svg>
