<svg width="452" height="452" viewBox="0 0 452 452" fill="none" xmlns="http://www.w3.org/2000/svg">
<path d="M0.118164 30C0.118164 13.4314 13.5496 0 30.1182 0H180.698C197.266 0 210.698 13.4315 210.698 30V82.0873C210.698 98.6559 197.266 112.087 180.698 112.087H30.1181C13.5496 112.087 0.118164 98.6559 0.118164 82.0873V30Z" fill="#003972"/>
<path d="M241.302 30.0001C241.302 13.4315 254.734 0 271.302 0H421.882C438.45 0 451.882 13.4315 451.882 30V282.041C451.882 298.61 438.45 312.042 421.882 312.042H271.302C254.734 312.042 241.302 298.61 241.302 282.042V30.0001Z" fill="#003972"/>
<path d="M0.118164 171.424C0.118164 154.856 13.5496 141.424 30.1182 141.424H180.698C197.266 141.424 210.698 154.856 210.698 171.424V421.763C210.698 438.331 197.266 451.763 180.698 451.763H30.1181C13.5496 451.763 0.118164 438.331 0.118164 421.763V171.424Z" fill="#003972"/>
<path d="M241.302 373.694C241.302 357.125 254.734 343.694 271.302 343.694H421.882C438.45 343.694 451.882 357.126 451.882 373.694V421.762C451.882 438.331 438.45 451.762 421.882 451.762H271.302C254.734 451.762 241.302 438.331 241.302 421.762V373.694Z" fill="#003972"/>
</svg>
