<svg width="453" height="452" viewBox="0 0 453 452" fill="none" xmlns="http://www.w3.org/2000/svg">
<path d="M0.152832 30.0036C0.152832 13.4351 13.5843 0.00366211 30.1528 0.00366211H180.842C197.411 0.00366211 210.842 13.4351 210.842 30.0037V82.1499C210.842 98.7184 197.411 112.15 180.842 112.15H30.1528C13.5843 112.15 0.152832 98.7184 0.152832 82.1498V30.0036Z" fill="#B3CADC"/>
<path d="M241.463 30.0037C241.463 13.4351 254.895 0.00366211 271.463 0.00366211H422.153C438.721 0.00366211 452.153 13.4351 452.153 30.0037V282.209C452.153 298.778 438.721 312.209 422.153 312.209H271.463C254.895 312.209 241.463 298.778 241.463 282.209V30.0037Z" fill="white"/>
<path d="M0.152832 171.502C0.152832 154.934 13.5843 141.502 30.1528 141.502H180.842C197.411 141.502 210.842 154.934 210.842 171.502V422.004C210.842 438.572 197.411 452.004 180.842 452.004H30.1528C13.5843 452.004 0.152832 438.572 0.152832 422.004V171.502Z" fill="white"/>
<path d="M241.463 373.878C241.463 357.31 254.895 343.878 271.463 343.878H422.153C438.721 343.878 452.153 357.31 452.153 373.878V422.003C452.153 438.572 438.721 452.003 422.153 452.003H271.463C254.895 452.003 241.463 438.572 241.463 422.003V373.878Z" fill="#B3CADC"/>
</svg>
