<svg width="452" height="452" viewBox="0 0 452 452" fill="none" xmlns="http://www.w3.org/2000/svg">
<path d="M0 30C0 13.4314 13.4315 0 30 0H180.579C197.148 0 210.579 13.4315 210.579 30V82.0873C210.579 98.6559 197.148 112.087 180.579 112.087H30C13.4314 112.087 0 98.6559 0 82.0873V30Z" fill="#003972"/>
<path d="M241.184 30.0001C241.184 13.4315 254.616 0 271.184 0H421.764C438.332 0 451.764 13.4315 451.764 30V282.041C451.764 298.61 438.332 312.042 421.764 312.042H271.184C254.616 312.042 241.184 298.61 241.184 282.042V30.0001Z" fill="#003972"/>
<path d="M0 171.424C0 154.856 13.4315 141.424 30 141.424H180.579C197.148 141.424 210.579 154.856 210.579 171.424V421.763C210.579 438.331 197.148 451.763 180.579 451.763H30C13.4314 451.763 0 438.331 0 421.763V171.424Z" fill="#003972"/>
<path d="M241.184 373.694C241.184 357.125 254.616 343.694 271.184 343.694H421.764C438.332 343.694 451.764 357.126 451.764 373.694V421.762C451.764 438.331 438.332 451.762 421.764 451.762H271.184C254.616 451.762 241.184 438.331 241.184 421.762V373.694Z" fill="#003972"/>
</svg>
