<svg width="54" height="40" viewBox="0 0 54 40" fill="none" xmlns="http://www.w3.org/2000/svg">
<path d="M40.4197 11.2141C44.0658 11.2141 47.0213 14.1696 47.0213 17.8157C47.0212 21.4617 44.0657 24.4172 40.4197 24.4172C36.7738 24.4172 33.8182 21.4616 33.8182 17.8157C33.8182 14.1697 36.7737 11.2142 40.4197 11.2141ZM20.6141 0.210205C25.4753 0.210404 29.4158 4.15165 29.4158 9.01294C29.4156 13.8741 25.4752 17.8145 20.6141 17.8147C15.7528 17.8147 11.8115 13.8742 11.8113 9.01294C11.8113 4.15153 15.7526 0.210205 20.6141 0.210205Z" fill="white"/>
<path d="M20.5779 22.217C31.1139 22.2171 39.77 27.264 40.4149 38.0618C40.4405 38.4924 40.4141 39.8215 38.7615 39.8215H2.40998C1.85818 39.8215 0.764278 38.632 0.810372 38.0598C1.66334 27.5571 10.188 22.217 20.5779 22.217ZM39.5428 26.6213C47.039 26.7034 53.1603 30.4915 53.6209 38.5012C53.6394 38.8242 53.6199 39.8214 52.4266 39.8215H43.9403C43.9402 34.869 42.3039 30.2986 39.5428 26.6213Z" fill="white"/>
</svg>
