<svg width="33" height="25" viewBox="0 0 33 25" fill="none" xmlns="http://www.w3.org/2000/svg">
<path fill-rule="evenodd" clip-rule="evenodd" d="M7.59448 6.15882C7.59448 9.08199 9.96418 11.4517 12.8873 11.4517C15.8105 11.4517 18.1802 9.08199 18.1802 6.15882C18.1802 3.23566 15.8105 0.865967 12.8873 0.865967C9.96418 0.865967 7.59448 3.23566 7.59448 6.15882ZM20.8271 11.452C20.8271 13.6444 22.6044 15.4216 24.7968 15.4216C26.9892 15.4216 28.7664 13.6444 28.7664 11.452C28.7664 9.25961 26.9892 7.48235 24.7968 7.48235C22.6044 7.48235 20.8271 9.25961 20.8271 11.452Z" fill="#04508C"/>
<path fill-rule="evenodd" clip-rule="evenodd" d="M12.8656 14.0988C6.61812 14.0988 1.49245 17.3096 0.979561 23.6248C0.951623 23.9688 1.60949 24.6845 1.94134 24.6845H23.7998C24.7938 24.6845 24.8092 23.8846 24.7938 23.6259C24.4061 17.1331 19.201 14.0988 12.8656 14.0988ZM24.2686 16.746C25.9294 18.9574 26.9136 21.706 26.9136 24.6845H32.0164C32.7343 24.6845 32.7455 24.0845 32.7343 23.8906C32.4573 19.074 28.7765 16.795 24.2686 16.746Z" fill="#04508C"/>
</svg>
