<svg width="517" height="517" viewBox="0 0 517 517" fill="none" xmlns="http://www.w3.org/2000/svg">
<path fill-rule="evenodd" clip-rule="evenodd" d="M350.491 66.4374C350.491 45.7105 333.688 28.908 312.961 28.908L124.351 28.9079C110.118 28.9074 97.2625 28.9069 86.5427 29.7827C75.0375 30.7228 62.7513 32.8549 50.6918 38.9995C33.2702 47.8762 19.106 62.0404 10.2293 79.462C4.08469 91.5215 1.95257 103.808 1.01255 115.313C0.136716 126.033 0.137204 138.888 0.137745 153.121V392.694C0.137204 406.928 0.136716 419.783 1.01255 430.503C1.95257 442.008 4.08469 454.294 10.2293 466.354C19.106 483.775 33.2702 497.94 50.6918 506.816C62.7513 512.961 75.0375 515.093 86.5427 516.033C97.2625 516.909 110.118 516.909 124.352 516.908H363.924C378.157 516.909 391.013 516.909 401.733 516.033C413.238 515.093 425.524 512.961 437.584 506.816C455.005 497.94 469.169 483.775 478.046 466.354C484.191 454.294 486.323 442.008 487.263 430.503C488.139 419.783 488.138 406.927 488.138 392.694V204.084C488.138 183.358 471.335 166.555 450.608 166.555C429.881 166.555 413.079 183.358 413.079 204.084V391.284C413.079 407.328 413.05 417.094 412.453 424.391C412.175 427.801 411.821 429.844 411.545 431.019C411.41 431.593 411.301 431.93 411.241 432.097C411.211 432.18 411.191 432.228 411.182 432.248C411.174 432.267 411.17 432.274 411.168 432.278C409.488 435.576 406.806 438.258 403.508 439.939L403.507 439.939C403.504 439.941 403.496 439.944 403.478 439.952C403.458 439.961 403.41 439.981 403.327 440.011C403.16 440.071 402.823 440.181 402.249 440.315C401.074 440.591 399.03 440.945 395.621 441.224C388.324 441.82 378.558 441.849 362.514 441.849H125.761C109.717 441.849 99.9517 441.82 92.6549 441.224C89.2451 440.945 87.2016 440.591 86.0268 440.315C85.4528 440.181 85.1153 440.071 84.9486 440.011C84.8656 439.981 84.8175 439.961 84.7974 439.952L84.7868 439.948L84.7775 439.943L84.7679 439.939C81.4695 438.258 78.7878 435.576 77.1072 432.278C77.1055 432.274 77.1016 432.267 77.0935 432.248C77.0847 432.228 77.0645 432.18 77.0347 432.097C76.9747 431.93 76.8651 431.593 76.7303 431.019C76.4544 429.844 76.1007 427.801 75.8221 424.391C75.2259 417.094 75.1966 407.328 75.1966 391.284V154.531C75.1966 138.487 75.2259 128.722 75.8221 121.425C76.1007 118.015 76.4544 115.972 76.7303 114.797C76.8651 114.223 76.9747 113.886 77.0347 113.719C77.0645 113.636 77.0847 113.588 77.0935 113.568C77.0986 113.556 77.102 113.549 77.1043 113.544L77.1072 113.538C78.7878 110.24 81.4697 107.558 84.7681 105.877C84.7716 105.875 84.7791 105.872 84.7974 105.864C84.8175 105.855 84.8656 105.835 84.9486 105.805C85.1154 105.745 85.4528 105.635 86.0269 105.501C87.2016 105.225 89.2451 104.871 92.6549 104.592C99.9517 103.996 109.717 103.967 125.761 103.967H312.961C333.688 103.967 350.491 87.1643 350.491 66.4374ZM271.538 336.408C281.469 336.408 290.985 332.448 297.996 325.412L380.196 242.912C394.785 228.27 394.785 204.546 380.196 189.904C365.588 175.242 341.888 175.242 327.279 189.904L271.538 245.849L243.196 217.404C236.185 210.368 226.669 206.408 216.738 206.408C206.807 206.408 197.29 210.368 190.279 217.404L108.079 299.904C93.4906 314.546 93.4906 338.27 108.079 352.912C122.688 367.573 146.388 367.573 160.996 352.912L216.738 296.967L245.079 325.412C252.09 332.448 261.607 336.408 271.538 336.408ZM451.638 129.908C487.26 129.908 516.138 101.03 516.138 65.4079C516.138 29.7856 487.26 0.907928 451.638 0.907928C416.015 0.907928 387.138 29.7856 387.138 65.4079C387.138 101.03 416.015 129.908 451.638 129.908Z" fill="#003972"/>
</svg>
