<svg width="516" height="516" viewBox="0 0 516 516" fill="none" xmlns="http://www.w3.org/2000/svg">
<path fill-rule="evenodd" clip-rule="evenodd" d="M478 391.44C478 391.44 478 391.441 478 391.44ZM350.353 65.5294C350.353 44.8025 333.55 28 312.824 28L124.214 28C109.98 27.9995 97.1247 27.999 86.405 28.8748C74.8998 29.8148 62.6136 31.947 50.5541 38.0916C33.1325 46.9683 18.9683 61.1325 10.0916 78.5541C3.94697 90.6136 1.81485 102.9 0.874836 114.405C-0.00100225 125.125 -0.000513965 137.98 2.6768e-05 152.214V391.786C-0.000513965 406.02 -0.00100225 418.875 0.874835 429.595C1.81485 441.1 3.94697 453.386 10.0916 465.446C18.9683 482.867 33.1325 497.032 50.5541 505.908C62.6136 512.053 74.8998 514.185 86.405 515.125C97.1248 516.001 109.981 516.001 124.214 516H363.786C378.019 516.001 390.875 516.001 401.595 515.125C413.1 514.185 425.387 512.053 437.446 505.908C454.868 497.032 469.032 482.867 477.909 465.446C484.053 453.386 486.185 441.1 487.125 429.595C488.001 418.875 488.001 406.019 488 391.786V203.176C488 182.45 471.198 165.647 450.471 165.647C429.744 165.647 412.941 182.45 412.941 203.176V390.376C412.941 406.421 412.912 416.186 412.316 423.483C412.037 426.893 411.683 428.936 411.407 430.111C411.273 430.685 411.163 431.022 411.103 431.189C411.073 431.272 411.053 431.32 411.044 431.34C411.036 431.359 411.032 431.366 411.031 431.37C409.35 434.668 406.668 437.35 403.37 439.031C403.366 439.032 403.358 439.036 403.34 439.044C403.32 439.053 403.272 439.073 403.189 439.103C403.022 439.163 402.685 439.273 402.111 439.407C400.936 439.683 398.893 440.037 395.483 440.316C388.186 440.912 378.421 440.941 362.376 440.941H125.624C109.579 440.941 99.814 440.912 92.5172 440.316C89.1073 440.037 87.0639 439.683 85.8891 439.407C85.3151 439.273 84.9776 439.163 84.8109 439.103C84.7279 439.073 84.6798 439.053 84.6597 439.044C84.6507 439.04 84.6444 439.037 84.6398 439.035L84.6301 439.031C81.3317 437.35 78.6501 434.668 76.9695 431.37C76.9677 431.366 76.9639 431.359 76.9558 431.34C76.947 431.32 76.9268 431.272 76.897 431.189C76.837 431.022 76.7274 430.685 76.5926 430.111C76.3167 428.936 75.963 426.893 75.6844 423.483C75.0882 416.186 75.0589 406.42 75.0589 390.376V153.624C75.0589 137.579 75.0882 127.814 75.6844 120.517C75.963 117.107 76.3167 115.064 76.5926 113.889C76.7274 113.315 76.837 112.978 76.897 112.811C76.9268 112.728 76.947 112.68 76.9558 112.66C76.9609 112.648 76.9643 112.641 76.9665 112.636L76.9695 112.63C78.6501 109.332 81.332 106.65 84.6303 104.969C84.6339 104.968 84.6414 104.964 84.6597 104.956C84.6657 104.953 84.6743 104.949 84.6855 104.945C84.7118 104.934 84.7528 104.918 84.8109 104.897C84.9777 104.837 85.3151 104.727 85.8891 104.593C87.0639 104.317 89.1073 103.963 92.5171 103.684C99.814 103.088 109.579 103.059 125.624 103.059H312.824C333.55 103.059 350.353 86.2564 350.353 65.5294ZM451.5 129C487.122 129 516 100.122 516 64.5C516 28.8776 487.122 0 451.5 0C415.878 0 387 28.8776 387 64.5C387 100.122 415.878 129 451.5 129Z" fill="white"/>
<path d="M298.147 324.504C291.136 331.54 281.619 335.5 271.689 335.5C261.758 335.5 252.241 331.54 245.23 324.504L216.889 296.059L161.147 352.004C146.539 366.665 122.838 366.665 108.23 352.004C93.6414 337.362 93.6414 313.638 108.23 298.996L190.43 216.496C197.441 209.46 206.958 205.5 216.889 205.5C226.819 205.5 236.336 209.46 243.347 216.496L271.689 244.941L327.43 188.996C342.038 174.335 365.739 174.335 380.347 188.996C394.936 203.638 394.936 227.362 380.347 242.004L298.147 324.504Z" fill="#A7BEFA"/>
</svg>
