<svg width="417" height="536" viewBox="0 0 417 536" fill="none" xmlns="http://www.w3.org/2000/svg">
<path fill-rule="evenodd" clip-rule="evenodd" d="M342.5 89C353.616 89 362.626 98.6987 362.626 110.663V240.638C362.626 252.602 353.616 262.3 342.5 262.3C331.384 262.3 322.374 252.602 322.374 240.638V110.663C322.374 98.6987 331.384 89 342.5 89Z" fill="white"/>
<path fill-rule="evenodd" clip-rule="evenodd" d="M74.5 0C85.6155 0 94.6265 9.67567 94.6265 21.6112V151.279C94.6265 163.214 85.6155 172.89 74.5 172.89C63.3845 172.89 54.3735 163.214 54.3735 151.279V21.6112C54.3735 9.67567 63.3845 0 74.5 0Z" fill="white"/>
<path fill-rule="evenodd" clip-rule="evenodd" d="M74.5 273.249C85.6155 273.249 94.6265 282.371 94.6265 293.624V456.625C94.6265 467.878 85.6155 477 74.5 477C63.3845 477 54.3735 467.878 54.3735 456.625V293.624C54.3735 282.371 63.3845 273.249 74.5 273.249Z" fill="white"/>
<path d="M0 142.6C0 112.998 24.0154 89 53.64 89H95.36C124.985 89 149 112.998 149 142.6V303.4C149 333.002 124.985 357 95.36 357H53.64C24.0154 357 0 333.002 0 303.4V142.6Z" fill="#A7BEFA"/>
<path fill-rule="evenodd" clip-rule="evenodd" d="M342.5 339.851C353.616 339.851 362.626 348.632 362.626 359.465V516.385C362.626 527.218 353.616 536 342.5 536C331.384 536 322.374 527.218 322.374 516.385V359.465C322.374 348.632 331.384 339.851 342.5 339.851Z" fill="white"/>
<path d="M268 291.7C268 262.042 292.015 238 321.64 238H363.36C392.985 238 417 262.042 417 291.7V363.3C417 392.958 392.985 417 363.36 417H321.64C292.015 417 268 392.958 268 363.3V291.7Z" fill="#A7BEFA"/>
</svg>
