<svg width="32" height="30" viewBox="0 0 32 30" fill="none" xmlns="http://www.w3.org/2000/svg">
<path d="M23.289 17.077H31.6262L28.5709 11.7678H19.1638L23.289 17.077Z" fill="#FFFFFF"/>
<path d="M15.9927 20.3422C14.5742 20.3422 13.4207 19.1941 13.4207 17.774C13.4207 16.357 14.5742 15.2039 15.9927 15.2039C17.4113 15.2039 18.5594 16.357 18.5594 17.774C18.5594 19.1941 17.4113 20.3422 15.9927 20.3422ZM29.492 29.952V18.4712H22.6099L15.9927 9.96399L9.37209 18.4712H2.48999V29.952H12.3982V23.9313C12.3982 22.8668 13.2627 22.0023 14.3272 22.0023H17.6529C18.7173 22.0023 19.5818 22.8668 19.5818 23.9313V29.952H29.492Z" fill="#FFFFFF"/>
<path d="M12.8215 11.7678H3.41093L0.359131 17.077H8.69282L12.8215 11.7678Z" fill="#FFFFFF"/>
<path d="M16.6902 8.58719V4.96892H22.4261L20.8497 2.80224L22.4242 0.631667H16.6902V0.152344H15.295V8.82335H16.6902V8.58719Z" fill="#FFFFFF"/>
</svg>
