<svg width="383" height="534" viewBox="0 0 383 534" fill="none" xmlns="http://www.w3.org/2000/svg">
<g filter="url(#filter0_d_1533_83)">
<path d="M263.887 226.112C263.893 226.512 263.79 226.886 263.577 227.227C263.364 227.569 263.08 227.821 262.713 227.988L192.401 259.973C191.821 260.243 191.241 260.243 190.654 259.973L120.342 227.988C119.981 227.821 119.69 227.569 119.478 227.227C119.265 226.886 119.162 226.512 119.175 226.112V197.492L186.671 228.207L189.416 229.283H191.498L194.464 229.084L263.887 197.492V226.112Z" fill="white"/>
<path d="M190.628 115.5C191.208 115.236 191.788 115.236 192.375 115.5L302.807 165.772C303.174 165.933 303.464 166.178 303.677 166.507C303.896 166.842 304.006 167.204 304.006 167.603C304.006 167.996 303.896 168.364 303.677 168.692C303.464 169.027 303.174 169.272 302.807 169.433L192.375 219.712C191.788 219.963 191.208 219.963 190.628 219.712L107.134 181.7V236.678C107.332 236.747 107.53 236.822 107.726 236.903C108.454 237.206 109.15 237.58 109.808 238.018C110.465 238.463 111.078 238.96 111.632 239.52C112.193 240.081 112.696 240.693 113.134 241.35C113.572 242.008 113.946 242.704 114.249 243.439C114.552 244.168 114.777 244.922 114.932 245.702C115.086 246.475 115.164 247.262 115.164 248.055C115.164 248.847 115.086 249.634 114.932 250.414C114.777 251.187 114.552 251.941 114.249 252.676C113.946 253.404 113.572 254.101 113.134 254.765C112.695 255.422 112.193 256.028 111.632 256.589C111.077 257.15 110.465 257.652 109.808 258.091C109.15 258.529 108.454 258.903 107.726 259.206C106.991 259.509 106.236 259.741 105.463 259.895C104.683 260.05 103.903 260.128 103.11 260.128C102.318 260.128 101.531 260.05 100.758 259.895C99.9779 259.741 99.2299 259.509 98.4951 259.206C97.7668 258.903 97.0705 258.529 96.4131 258.091C95.7556 257.652 95.1428 257.15 94.582 256.589C94.0213 256.028 93.5252 255.422 93.0869 254.765C92.6421 254.101 92.2746 253.404 91.9717 252.676C91.6688 251.941 91.4369 251.187 91.2822 250.414C91.1275 249.634 91.0498 248.847 91.0498 248.055C91.0498 247.262 91.1276 246.475 91.2822 245.702C91.4369 244.922 91.6688 244.168 91.9717 243.439C92.2746 242.704 92.6421 242.008 93.0869 241.35C93.5251 240.693 94.0214 240.081 94.582 239.52C95.1428 238.96 95.7556 238.463 96.4131 238.018C97.0706 237.58 97.7667 237.206 98.4951 236.903C98.6942 236.821 98.8944 236.746 99.0957 236.675V178.04L80.1895 169.433C79.8286 169.272 79.5384 169.027 79.3193 168.692C79.1068 168.364 78.9972 167.996 78.9971 167.603C78.9971 167.204 79.1066 166.842 79.3193 166.507C79.5384 166.178 79.8287 165.933 80.1895 165.772L190.628 115.5Z" fill="white"/>
<path fill-rule="evenodd" clip-rule="evenodd" d="M191.5 0.000839952C201.136 -0.0249312 210.734 0.542374 220.3 1.69615C315.732 13.4084 378.999 103.31 378.999 193.921C378.999 252.476 349.696 306.481 319.761 356.488C289.059 406.863 255.289 455.079 218.457 501.154C211.605 509.85 202.271 524.83 191.5 525.507V525.603C180.729 524.927 171.401 509.946 164.549 501.244C127.717 455.175 93.947 406.953 63.2451 356.585C33.3102 306.577 4.0001 252.554 4 194.012C4 103.401 67.2734 13.5051 162.699 1.79283C172.265 0.63901 181.87 0.072322 191.5 0.0916603V0.000839952ZM191.5 28.1571C188.896 28.1571 186.285 28.2215 183.681 28.3504C181.077 28.4794 178.479 28.6659 175.881 28.9237C173.283 29.1815 170.699 29.4979 168.114 29.8846C165.536 30.2649 162.97 30.7162 160.411 31.2254C157.852 31.7347 155.306 32.3022 152.779 32.9403C150.246 33.572 147.732 34.2676 145.237 35.0282C142.743 35.7823 140.267 36.6012 137.812 37.4842C135.356 38.3609 132.919 39.3025 130.515 40.3016C128.104 41.3007 125.719 42.3578 123.359 43.4794C121 44.5945 118.673 45.7678 116.372 46.9989C114.071 48.23 111.802 49.5121 109.565 50.8592C107.329 52.2 105.124 53.5993 102.958 55.0497C100.792 56.5 98.6584 58.0021 96.5635 59.5555C94.4688 61.1088 92.4129 62.7204 90.3955 64.3768C88.3781 66.0333 86.4053 67.735 84.4717 69.4881C82.5379 71.2414 80.6492 73.047 78.8057 74.8905C76.9622 76.734 75.1634 78.6287 73.4102 80.5624C71.6633 82.4961 69.9613 84.4754 68.3047 86.493C66.6481 88.5106 65.0427 90.5665 63.4893 92.6678C61.9358 94.7628 60.4347 96.8969 58.9844 99.0692C57.5405 101.241 56.1415 103.446 54.8008 105.682C53.4601 107.925 52.1774 110.194 50.9463 112.502C49.7152 114.803 48.5419 117.137 47.4268 119.496C46.3116 121.855 45.2544 124.24 44.2617 126.651C43.2626 129.068 42.321 131.505 41.4443 133.961C40.5677 136.417 39.7489 138.898 38.9883 141.399C38.2341 143.894 37.538 146.415 36.9062 148.948C36.2682 151.481 35.7016 154.027 35.1924 156.586C34.6832 159.145 34.2383 161.717 33.8516 164.302C33.4713 166.886 33.1489 169.478 32.8975 172.076C32.6396 174.674 32.4463 177.278 32.3174 179.889C32.1885 182.493 32.1299 185.103 32.1299 187.714C32.1299 190.324 32.1885 192.935 32.3174 195.546C32.4463 198.15 32.6396 200.754 32.8975 203.351C33.1488 205.955 33.4713 208.54 33.8516 211.125C34.2383 213.71 34.6832 216.282 35.1924 218.841C35.7016 221.406 36.2681 223.953 36.9062 226.486C37.5379 229.019 38.2341 231.533 38.9883 234.034C39.7489 236.529 40.5677 239.011 41.4443 241.467C42.321 243.929 43.2626 246.359 44.2617 248.776C45.2544 251.187 46.3117 253.572 47.4268 255.932C48.5418 258.297 49.7152 260.624 50.9463 262.932C52.1774 265.233 53.4601 267.502 54.8008 269.745C56.1415 271.982 57.5406 274.186 58.9844 276.358C60.4346 278.53 61.9359 280.664 63.4893 282.766C65.0427 284.86 66.6481 286.917 68.3047 288.934C69.9612 290.958 71.6634 292.93 73.4102 294.864C75.1635 296.804 76.9621 298.693 78.8057 300.537C80.6491 302.387 82.538 304.185 84.4717 305.938C86.4054 307.692 88.378 309.4 90.3955 311.057C92.413 312.713 94.4687 314.319 96.5635 315.872C98.6583 317.425 100.792 318.933 102.958 320.384C105.124 321.834 107.329 323.227 109.565 324.574C111.802 325.915 114.071 327.204 116.372 328.435C118.673 329.66 121 330.84 123.359 331.955C125.719 333.07 128.104 334.127 130.515 335.126C132.919 336.125 135.356 337.067 137.812 337.943C140.267 338.826 142.743 339.644 145.237 340.398C147.732 341.159 150.246 341.856 152.779 342.494C155.306 343.126 157.852 343.699 160.411 344.208C162.97 344.717 165.536 345.163 168.114 345.543C170.699 345.93 173.283 346.245 175.881 346.503C178.479 346.761 181.077 346.954 183.681 347.083C186.285 347.205 188.896 347.27 191.5 347.27C194.111 347.27 196.715 347.205 199.325 347.083C201.929 346.954 204.527 346.761 207.125 346.503C209.716 346.245 212.307 345.93 214.886 345.543C217.464 345.163 220.036 344.717 222.595 344.208C225.154 343.699 227.693 343.126 230.227 342.494C232.76 341.856 235.268 341.159 237.769 340.398C240.263 339.644 242.739 338.826 245.194 337.943C247.65 337.067 250.08 336.125 252.491 335.126C254.902 334.127 257.287 333.07 259.646 331.955C261.999 330.84 264.333 329.66 266.634 328.435C268.929 327.204 271.198 325.915 273.435 324.574C275.678 323.227 277.876 321.834 280.048 320.384C282.214 318.933 284.348 317.425 286.442 315.872C288.537 314.319 290.593 312.713 292.61 311.057C294.621 309.4 296.6 307.692 298.534 305.938C300.462 304.185 302.351 302.387 304.194 300.537C306.044 298.693 307.837 296.804 309.59 294.864C311.343 292.931 313.045 290.958 314.701 288.934C316.358 286.917 317.956 284.86 319.51 282.766C321.07 280.664 322.565 278.531 324.016 276.358C325.466 274.186 326.858 271.982 328.205 269.745C329.546 267.502 330.828 265.233 332.06 262.932C333.284 260.624 334.458 258.297 335.573 255.932C336.688 253.572 337.745 251.187 338.744 248.776C339.743 246.359 340.685 243.929 341.562 241.467C342.438 239.011 343.257 236.529 344.018 234.034C344.772 231.533 345.468 229.019 346.1 226.486C346.731 223.953 347.304 221.406 347.813 218.841C348.323 216.282 348.768 213.71 349.154 211.125C349.535 208.54 349.851 205.955 350.108 203.351C350.366 200.754 350.56 198.15 350.683 195.546C350.812 192.935 350.876 190.324 350.876 187.714C350.876 185.103 350.812 182.493 350.683 179.889C350.56 177.278 350.366 174.674 350.108 172.076C349.851 169.478 349.535 166.886 349.154 164.302C348.768 161.717 348.323 159.145 347.813 156.586C347.304 154.027 346.731 151.481 346.1 148.948C345.468 146.415 344.771 143.894 344.011 141.399C343.257 138.898 342.438 136.417 341.562 133.961C340.685 131.505 339.743 129.068 338.744 126.651C337.745 124.24 336.688 121.855 335.573 119.496C334.458 117.137 333.284 114.803 332.06 112.502C330.828 110.194 329.546 107.925 328.205 105.682C326.858 103.446 325.466 101.241 324.016 99.0692C322.565 96.8969 321.07 94.7628 319.51 92.6678C317.956 90.5666 316.358 88.5105 314.701 86.493C313.045 84.4755 311.343 82.4961 309.59 80.5624C307.837 78.6287 306.044 76.734 304.194 74.8905C302.351 73.0469 300.462 71.2414 298.534 69.4881C296.601 67.735 294.621 66.0333 292.61 64.3768C290.593 62.7204 288.537 61.1088 286.442 59.5555C284.348 58.0021 282.214 56.5 280.048 55.0497C277.876 53.5994 275.678 52.2 273.435 50.8592C271.198 49.5121 268.928 48.23 266.634 46.9989C264.333 45.7677 261.999 44.5941 259.646 43.4725C257.287 42.3574 254.902 41.3007 252.491 40.3016C250.08 39.3025 247.65 38.3609 245.194 37.4842C242.738 36.6012 240.263 35.7823 237.769 35.0282C235.268 34.2676 232.753 33.572 230.227 32.9403C227.693 32.3022 225.154 31.7347 222.595 31.2254C220.036 30.7162 217.464 30.2649 214.886 29.8846C212.307 29.4979 209.716 29.1815 207.125 28.9237C204.527 28.6659 201.929 28.4794 199.325 28.3504C196.715 28.2215 194.111 28.1571 191.5 28.1571Z" fill="white"/>
</g>
<defs>
<filter id="filter0_d_1533_83" x="0" y="0" width="382.999" height="533.603" filterUnits="userSpaceOnUse" color-interpolation-filters="sRGB">
<feFlood flood-opacity="0" result="BackgroundImageFix"/>
<feColorMatrix in="SourceAlpha" type="matrix" values="0 0 0 0 0 0 0 0 0 0 0 0 0 0 0 0 0 0 127 0" result="hardAlpha"/>
<feOffset dy="4"/>
<feGaussianBlur stdDeviation="2"/>
<feComposite in2="hardAlpha" operator="out"/>
<feColorMatrix type="matrix" values="0 0 0 0 0 0 0 0 0 0 0 0 0 0 0 0 0 0 0.1 0"/>
<feBlend mode="normal" in2="BackgroundImageFix" result="effect1_dropShadow_1533_83"/>
<feBlend mode="normal" in="SourceGraphic" in2="effect1_dropShadow_1533_83" result="shape"/>
</filter>
</defs>
</svg>
