<svg width="223" height="223" viewBox="0 0 223 223" fill="none" xmlns="http://www.w3.org/2000/svg">
<path fill-rule="evenodd" clip-rule="evenodd" d="M90.0556 30C56.8878 30 30 56.8878 30 90.0556C30 123.223 56.8878 150.111 90.0556 150.111C123.223 150.111 150.111 123.223 150.111 90.0556C150.111 56.8878 123.223 30 90.0556 30ZM0 90.0556C0 40.3192 40.3192 0 90.0556 0C139.792 0 180.111 40.3192 180.111 90.0556C180.111 109.508 173.943 127.521 163.457 142.243L218.607 197.393C224.464 203.251 224.464 212.749 218.607 218.607C212.749 224.464 203.251 224.464 197.393 218.607L142.243 163.457C127.521 173.943 109.508 180.111 90.0556 180.111C40.3192 180.111 0 139.792 0 90.0556Z" fill="#00AD7F"/>
</svg>
