<svg width="539" height="478" viewBox="0 0 539 478" fill="none" xmlns="http://www.w3.org/2000/svg">
<path fill-rule="evenodd" clip-rule="evenodd" d="M10.5359 263.497C3.927 251.616 0.622559 245.676 0.622559 239.19C0.622558 232.705 3.927 226.765 10.5359 214.884L63.2935 120.044L119.049 26.9341C126.033 15.2704 129.525 9.43852 135.142 6.19577C140.759 2.953 147.555 2.8446 161.149 2.6278L269.661 0.897095L378.174 2.62779C391.768 2.84459 398.564 2.95299 404.181 6.19575C409.797 9.43851 413.29 15.2704 420.274 26.9341L476.029 120.044L528.787 214.884C535.396 226.764 538.7 232.705 538.7 239.19C538.7 245.676 535.396 251.616 528.787 263.497L476.029 358.337L420.274 451.446C413.29 463.11 409.797 468.942 404.181 472.185C398.564 475.428 391.768 475.536 378.174 475.753L269.661 477.483L161.149 475.753C147.555 475.536 140.759 475.428 135.142 472.185C129.525 468.942 126.033 463.11 119.049 451.446L63.2935 358.337L10.5359 263.497ZM368.611 239.19C368.611 293.839 324.31 338.14 269.662 338.14C215.013 338.14 170.712 293.839 170.712 239.19C170.712 184.542 215.013 140.241 269.662 140.241C324.31 140.241 368.611 184.542 368.611 239.19Z" fill="white"/>
<path d="M318.128 239.19C318.128 265.958 296.429 287.657 269.661 287.657C242.894 287.657 221.195 265.958 221.195 239.19C221.195 212.423 242.894 190.723 269.661 190.723C296.429 190.723 318.128 212.423 318.128 239.19Z" fill="white"/>
</svg>
