<svg width="543" height="482" viewBox="0 0 543 482" fill="none" xmlns="http://www.w3.org/2000/svg">
<path fill-rule="evenodd" clip-rule="evenodd" d="M53.4607 240.891L106.364 335.992L162.272 429.358L271.084 431.093L379.895 429.358L435.804 335.992L488.707 240.891L435.804 145.789L379.895 52.4235L271.084 50.688L162.272 52.4235L106.363 145.789L53.4607 240.891ZM2.43173 251.712C1.49553 249.569 0.141602 245.79 0.141602 240.891C0.141601 235.992 1.49553 232.212 2.43173 230.069C3.11466 228.507 3.95488 227.026 4.07416 226.816C4.08105 226.804 4.08553 226.796 4.08745 226.793L63.0568 120.786L125.377 16.7138C125.414 16.652 126.316 15.0938 127.386 13.6417C128.773 11.7597 131.37 8.69724 135.613 6.24772C139.855 3.79822 143.806 3.08082 146.129 2.82041C147.824 2.63053 149.525 2.61811 149.767 2.61631L149.795 2.61609L271.084 0.681641L392.373 2.61608L392.4 2.6163C392.643 2.6181 394.344 2.63052 396.038 2.8204C398.362 3.0808 402.312 3.79821 406.555 6.24771C410.798 8.69723 413.394 11.7597 414.781 13.6417C415.793 15.0145 416.655 16.4823 416.777 16.6905L416.791 16.7137L479.111 120.786L538.08 226.793C538.115 226.856 539.013 228.416 539.736 230.069C540.672 232.212 542.026 235.992 542.026 240.891C542.026 245.79 540.672 249.569 539.736 251.712C539.052 253.276 538.211 254.758 538.093 254.965L538.08 254.988L479.111 360.995L416.791 465.067L416.777 465.09C416.655 465.298 415.793 466.766 414.781 468.139C413.394 470.021 410.798 473.084 406.555 475.533C402.312 477.983 398.362 478.7 396.038 478.961C394.343 479.151 392.641 479.163 392.4 479.165L392.373 479.165L271.084 481.099L149.795 479.165C149.791 479.165 149.782 479.165 149.768 479.165C149.526 479.163 147.824 479.151 146.129 478.961C143.806 478.7 139.855 477.983 135.613 475.533C131.37 473.084 128.774 470.021 127.386 468.139C126.374 466.767 125.513 465.299 125.39 465.091C125.383 465.079 125.379 465.071 125.377 465.067L63.0568 360.995L4.08745 254.988C4.08555 254.985 4.08109 254.977 4.07426 254.965C3.95532 254.755 3.11484 253.275 2.43173 251.712Z" fill="#003972"/>
<path fill-rule="evenodd" clip-rule="evenodd" d="M271.084 192.021C244.094 192.021 222.215 213.901 222.215 240.89C222.215 267.88 244.094 289.76 271.084 289.76C298.074 289.76 319.953 267.88 319.953 240.89C319.953 213.901 298.074 192.021 271.084 192.021ZM172.215 240.89C172.215 186.286 216.48 142.021 271.084 142.021C325.688 142.021 369.953 186.286 369.953 240.89C369.953 295.494 325.688 339.76 271.084 339.76C216.48 339.76 172.215 295.494 172.215 240.89Z" fill="#003972"/>
</svg>
