<svg width="480" height="528" viewBox="0 0 480 528" fill="none" xmlns="http://www.w3.org/2000/svg">
<path fill-rule="evenodd" clip-rule="evenodd" d="M239.729 0C239.096 0 238.54 0.391046 237.428 1.17314L127.881 78.2126C127.703 78.3383 127.613 78.4012 127.518 78.4538C127.422 78.5065 127.322 78.5485 127.12 78.6326L127.12 78.6326L2.58158 130.561C1.24102 131.12 0.570736 131.4 0.232462 131.978C-0.105813 132.556 -0.0211081 133.277 0.148302 134.72L15.2634 263.424C15.2908 263.657 15.3044 263.774 15.3044 263.891C15.3044 264.008 15.2908 264.124 15.2634 264.357L0.148303 393.061C-0.0211076 394.504 -0.105813 395.225 0.232462 395.803C0.570724 396.381 1.24097 396.661 2.58143 397.22L2.58157 397.22L127.12 449.149C127.322 449.233 127.422 449.275 127.518 449.327C127.613 449.38 127.703 449.443 127.881 449.569L237.428 526.608C238.54 527.39 239.096 527.781 239.729 527.781C240.362 527.781 240.918 527.39 242.03 526.608L351.577 449.569C351.755 449.443 351.845 449.38 351.94 449.327C351.979 449.306 352.02 449.286 352.067 449.264C352.136 449.233 352.219 449.198 352.338 449.149L476.876 397.22C478.217 396.661 478.887 396.381 479.226 395.803C479.564 395.225 479.479 394.504 479.31 393.061L464.195 264.357L464.194 264.356C464.167 264.124 464.154 264.007 464.154 263.891C464.154 263.774 464.167 263.657 464.195 263.424L479.31 134.72C479.479 133.277 479.564 132.556 479.226 131.978C478.887 131.4 478.217 131.12 476.876 130.561L352.338 78.6326L352.338 78.6324C352.136 78.5484 352.036 78.5064 351.94 78.4538C351.845 78.4012 351.755 78.3383 351.577 78.2126L242.03 1.17314C240.918 0.391047 240.362 0 239.729 0ZM239.7 359.543C295.341 359.543 340.446 316.508 340.446 263.421C340.446 210.334 295.341 167.299 239.7 167.299C184.06 167.299 138.955 210.334 138.955 263.421C138.955 316.508 184.06 359.543 239.7 359.543Z" fill="#003972"/>
</svg>
