<svg width="30" height="20" viewBox="0 0 30 20" fill="none" xmlns="http://www.w3.org/2000/svg">
<path d="M20.7688 1.53711L23.8548 4.6231L17.2785 11.1994L11.8881 5.80899L1.90247 15.8081L3.80257 17.7083L11.8881 9.62268L17.2785 15.0131L25.7684 6.53669L28.8544 9.62268V1.53711H20.7688Z" fill="#03C4A7"/>
<path d="M29.8546 0.537109V12.0371L25.7667 7.94922L17.2784 16.4268L11.8878 11.0361L3.80286 19.1221L0.488403 15.8086L11.8878 4.39453L17.2784 9.78516L22.4406 4.62305L18.3546 0.537109H29.8546ZM25.2687 4.62305L17.2784 12.6133L11.8878 7.22266L3.31653 15.8076L3.80286 16.2939L11.8878 8.20801L17.2784 13.5996L25.7687 5.12305L27.8546 7.20801V2.53711H23.1827L25.2687 4.62305Z" fill="#03C4A7"/>
</svg>
