<svg width="464" height="502" viewBox="0 0 464 502" fill="none" xmlns="http://www.w3.org/2000/svg">
<path fill-rule="evenodd" clip-rule="evenodd" d="M292.391 16.6492C273.675 9.1233 253.276 5 232 5C149.455 5 80.1095 67.0668 70.9938 149.107L64.6517 206.177C61.8766 230.36 54.0049 253.68 41.5561 274.598L26.0575 300.431C20.1171 310.33 14.7351 319.299 11.1502 326.911C7.50705 334.646 3.61176 345.127 5.48676 357.01C7.34004 368.756 13.3852 379.433 22.5035 387.065C31.7287 394.787 42.7201 396.839 51.2275 397.695C59.5993 398.537 70.0588 398.536 81.6038 398.535H382.396C393.941 398.536 404.401 398.537 412.772 397.695C421.28 396.839 432.271 394.787 441.496 387.065C450.615 379.433 456.66 368.756 458.513 357.01C460.388 345.127 456.493 334.646 452.85 326.911C449.265 319.299 443.883 310.33 437.942 300.431L422.444 274.598C413.128 258.945 406.376 241.947 402.404 224.249C395.007 225.637 387.376 226.364 379.576 226.364C370.132 226.364 360.936 225.299 352.103 223.284C356.643 250.258 366.148 276.192 380.171 299.756L395.167 324.751C401.894 335.962 405.948 342.777 408.346 347.87C408.478 348.149 408.598 348.41 408.708 348.656C408.441 348.688 408.155 348.719 407.848 348.75C402.247 349.314 394.318 349.343 381.243 349.343H82.7574C69.6823 349.343 61.7532 349.314 56.1517 348.75C55.8453 348.719 55.5589 348.688 55.2917 348.656C55.402 348.41 55.5223 348.149 55.6535 347.87C58.0522 342.777 62.1061 335.962 68.8332 324.751L83.8286 299.756C99.8342 272.861 109.955 242.878 113.523 211.785L119.885 154.54C126.232 97.4115 174.52 54.1919 232 54.1919C243.388 54.1919 254.416 55.8886 264.828 59.0539C271.025 43.024 280.484 28.6177 292.391 16.6492ZM354.54 61.0305C340.079 69.5969 330.384 85.3581 330.384 103.384C330.384 106.951 330.763 110.429 331.485 113.781C334.446 119.312 336.963 125.128 338.986 131.182C347.851 144.102 362.724 152.576 379.576 152.576C384.295 152.576 388.859 151.911 393.18 150.67L393.006 149.107C389.261 115.405 375.352 85.0733 354.54 61.0305Z" fill="white"/>
<path fill-rule="evenodd" clip-rule="evenodd" d="M295.48 465.583C278.991 484.561 256.843 496.919 231.993 496.919C207.144 496.919 184.995 484.561 168.507 465.583C152.134 446.738 141.323 421.573 136.507 394.613C134.118 381.241 143.022 368.464 156.394 366.076C169.767 363.687 182.544 372.591 184.932 385.963C188.524 406.072 196.24 422.5 205.641 433.32C214.926 444.007 224.356 447.727 231.993 447.727C239.63 447.727 249.06 444.007 258.345 433.32C267.746 422.5 275.462 406.072 279.054 385.963C281.443 372.591 294.22 363.687 307.592 366.076C320.964 368.464 329.868 381.241 327.479 394.613C322.664 421.574 311.852 446.738 295.48 465.583Z" fill="white"/>
<path d="M428.772 103.384C428.772 130.552 406.749 152.576 379.581 152.576C352.413 152.576 330.389 130.552 330.389 103.384C330.389 76.216 352.413 54.1921 379.581 54.1921C406.749 54.1921 428.772 76.216 428.772 103.384Z" fill="white"/>
<path fill-rule="evenodd" clip-rule="evenodd" d="M453.367 103.384C453.367 144.136 420.331 177.172 379.579 177.172C338.827 177.172 305.791 144.136 305.791 103.384C305.791 62.6322 338.827 29.5963 379.579 29.5963C420.331 29.5963 453.367 62.6322 453.367 103.384ZM379.579 152.576C406.747 152.576 428.771 130.552 428.771 103.384C428.771 76.2162 406.747 54.1922 379.579 54.1922C352.411 54.1922 330.387 76.2162 330.387 103.384C330.387 130.552 352.411 152.576 379.579 152.576Z" fill="white"/>
<path fill-rule="evenodd" clip-rule="evenodd" d="M301.258 14.8256L295.936 20.1756C284.509 31.6615 275.435 45.4834 269.492 60.8568L267.817 65.1885L263.374 63.8377C253.427 60.814 242.89 59.1919 232 59.1919C177.068 59.1919 130.92 100.496 124.854 155.092L118.491 212.346L118.49 212.355C114.842 244.15 104.492 274.81 88.1252 302.313L88.1207 302.32L73.1208 327.323C68.7122 334.671 65.525 340.012 63.2118 344.172C67.9687 344.328 74.1886 344.343 82.7574 344.343H381.242C389.811 344.343 396.031 344.328 400.788 344.172C398.475 340.012 395.288 334.671 390.879 327.323L375.884 302.328L375.879 302.32L375.875 302.313C361.535 278.217 351.814 251.697 347.173 224.113L345.933 216.747L353.216 218.409C361.686 220.342 370.509 221.364 379.576 221.364C387.065 221.364 394.387 220.666 401.482 219.335L406.226 218.444L407.283 223.154C411.138 240.335 417.693 256.836 426.735 272.031C426.737 272.035 426.739 272.038 426.74 272.041L442.338 298.04C448.193 307.796 453.681 316.94 457.373 324.78C461.139 332.776 465.566 344.39 463.452 357.79C461.41 370.729 454.751 382.491 444.706 390.899C434.304 399.606 422.067 401.785 413.273 402.67C404.65 403.537 393.986 403.536 382.609 403.535H330.78C325.234 428.17 314.669 451.119 299.254 468.862C282.038 488.677 258.598 501.919 231.993 501.919C205.388 501.919 181.948 488.677 164.732 468.862C149.317 451.119 138.752 428.17 133.207 403.535H81.3908C70.0136 403.536 59.3498 403.537 50.727 402.67C41.9333 401.785 29.6961 399.606 19.2942 390.899C9.24905 382.491 2.58949 370.729 0.547827 357.789C-1.56633 344.39 2.86103 332.776 6.62669 324.78C10.3189 316.941 15.8056 307.798 21.6593 298.043L37.2594 272.041C37.261 272.039 37.2627 272.036 37.2643 272.033C49.3471 251.727 56.988 229.091 59.6832 205.616C59.6835 205.613 59.6839 205.61 59.6843 205.607L66.0244 148.555C75.4214 63.9825 146.907 0 232 0C253.926 0 274.957 4.25002 294.257 12.0101L301.258 14.8256ZM64.6517 206.177C61.8766 230.36 54.0049 253.68 41.5561 274.598L26.0575 300.431C20.1171 310.33 14.7351 319.299 11.1502 326.911C7.50705 334.646 3.61176 345.127 5.48676 357.01C7.34004 368.756 13.3852 379.433 22.5035 387.065C31.7287 394.787 42.7201 396.839 51.2275 397.695C59.5993 398.537 70.0588 398.536 81.6038 398.535H137.252C137.59 400.21 137.951 401.877 138.335 403.535C143.796 427.093 153.955 448.834 168.507 465.583C184.995 484.561 207.144 496.919 231.993 496.919C256.843 496.919 278.991 484.561 295.48 465.583C310.031 448.834 320.19 427.093 325.651 403.535C326.035 401.877 326.396 400.21 326.734 398.535H382.396C393.941 398.536 404.401 398.537 412.772 397.695C421.28 396.839 432.271 394.787 441.496 387.065C450.615 379.433 456.66 368.756 458.513 357.01C460.388 345.127 456.493 334.646 452.85 326.911C449.265 319.299 443.883 310.33 437.942 300.431L422.444 274.598C413.128 258.945 406.376 241.947 402.404 224.249C395.007 225.637 387.376 226.364 379.576 226.364C371.992 226.364 364.568 225.677 357.364 224.363C355.597 224.041 353.843 223.681 352.103 223.284C352.403 225.065 352.724 226.842 353.067 228.614C357.918 253.673 367.074 277.748 380.171 299.756L395.167 324.751C400.28 333.272 403.849 339.254 406.32 343.87C406.787 344.742 407.215 345.566 407.607 346.349C407.869 346.873 408.116 347.38 408.346 347.87C408.478 348.149 408.598 348.41 408.708 348.656C408.441 348.688 408.155 348.719 407.848 348.75C407.309 348.804 406.748 348.854 406.163 348.898C406.164 348.898 406.163 348.898 406.163 348.898C405.291 348.965 404.364 349.022 403.375 349.07C398.146 349.326 391.181 349.343 381.243 349.343H82.7574C72.8194 349.343 65.8542 349.326 60.6244 349.07C59.6361 349.022 58.7097 348.965 57.837 348.898C57.252 348.854 56.6911 348.804 56.1517 348.75C55.8453 348.719 55.5589 348.688 55.2917 348.656C55.402 348.41 55.5223 348.149 55.6535 347.87C55.8844 347.38 56.1307 346.873 56.3933 346.349C56.785 345.566 57.2128 344.742 57.6799 343.87C60.1513 339.254 63.7201 333.272 68.8332 324.751L83.8286 299.756C99.8342 272.861 109.955 242.878 113.523 211.785L119.885 154.54C126.232 97.4115 174.52 54.1919 232 54.1919C243.388 54.1919 254.416 55.8886 264.828 59.0539C270.365 44.7315 278.506 31.7052 288.67 20.5558C289.882 19.2266 291.123 17.9241 292.391 16.6492C290.708 15.9725 289.012 15.3232 287.302 14.7021C269.999 8.41511 251.363 5 232 5C149.455 5 80.1095 67.0668 70.9938 149.107L64.6517 206.177ZM187.834 398.535C188.321 400.238 188.839 401.905 189.386 403.535C193.467 415.713 199.153 425.852 205.641 433.32C214.926 444.007 224.356 447.727 231.993 447.727C239.63 447.727 249.06 444.007 258.345 433.32C264.834 425.852 270.519 415.713 274.601 403.535C275.147 401.905 275.665 400.238 276.152 398.535H187.834ZM269.314 403.535H194.673C198.523 414.456 203.689 423.449 209.415 430.041C217.958 439.873 226.092 442.727 231.993 442.727C237.894 442.727 246.029 439.873 254.571 430.041C260.298 423.449 265.464 414.456 269.314 403.535ZM458.367 103.384C458.367 146.898 423.092 182.172 379.579 182.172C336.066 182.172 300.791 146.898 300.791 103.384C300.791 59.8708 336.066 24.5963 379.579 24.5963C423.092 24.5963 458.367 59.8708 458.367 103.384ZM331.49 113.791C332.854 120.125 335.438 126.004 338.983 131.173L338.981 131.169C335.439 126.002 332.857 120.126 331.493 113.796L331.49 113.791ZM379.579 177.172C420.331 177.172 453.367 144.136 453.367 103.384C453.367 62.6322 420.331 29.5963 379.579 29.5963C338.827 29.5963 305.791 62.6322 305.791 103.384C305.791 144.136 338.827 177.172 379.579 177.172ZM379.576 152.576L379.579 152.576C379.578 152.576 379.577 152.576 379.576 152.576Z" fill="white"/>
</svg>
