<svg width="468" height="499" viewBox="0 0 468 499" fill="none" xmlns="http://www.w3.org/2000/svg">
<path d="M297.203 38.8004L311.1 17.251L286.815 9.01957C270.129 3.36355 252.296 0.313721 233.846 0.313721C149.814 0.313721 79.2039 63.4618 69.9212 146.954L63.229 207.136L63.2251 207.17C60.2003 233.471 51.6343 258.833 38.0908 281.587L38.0725 281.618L21.8246 308.683C15.4608 319.282 9.92004 328.51 6.2685 336.259C2.56846 344.11 -0.907231 353.815 0.786859 364.545C2.51874 375.515 8.16747 385.484 16.6845 392.608C25.0135 399.576 35.121 401.589 43.7594 402.458C52.2846 403.315 63.0503 403.314 75.4184 403.314L144.345 403.314V408.314C144.345 420.117 146.67 431.805 151.187 442.71C155.704 453.615 162.325 463.524 170.671 471.87C179.018 480.217 188.926 486.837 199.831 491.354C210.736 495.871 222.424 498.196 234.228 498.196C246.031 498.196 257.719 495.871 268.624 491.354C279.529 486.837 289.438 480.217 297.784 471.87C306.131 463.524 312.751 453.615 317.268 442.71C321.785 431.805 324.11 420.117 324.11 408.314V403.314L392.273 403.314C404.641 403.314 415.406 403.315 423.932 402.458C432.57 401.589 442.678 399.576 451.007 392.608C459.524 385.484 465.172 375.515 466.904 364.545C468.598 353.815 465.123 344.11 461.423 336.259C457.771 328.51 452.23 319.282 445.866 308.683L429.619 281.618L429.6 281.587C418.915 263.635 411.328 244.059 407.116 223.68L403.869 207.97L387.829 207.73C328 206.834 279.79 158.081 279.79 98.0994C279.79 76.2162 286.185 55.8859 297.203 38.8004Z" fill="white"/>
<path d="M467.345 94.2742C467.345 132.5 436.357 163.487 398.132 163.487C359.907 163.487 328.919 132.5 328.919 94.2742C328.919 56.0488 359.907 25.061 398.132 25.061C436.357 25.061 467.345 56.0488 467.345 94.2742Z" fill="white"/>
</svg>
