<svg width="453" height="490" viewBox="0 0 453 490" fill="none" xmlns="http://www.w3.org/2000/svg">
<path d="M226.488 0C247.716 0 268.065 4.13214 286.74 11.6279C274.861 23.5523 265.454 37.9118 259.274 53.8809C248.876 50.7217 237.863 49 226.488 49C169.138 49.0033 120.97 92.0589 114.637 148.962L108.286 205.977C104.726 236.949 94.6095 266.827 78.6392 293.617L77.8723 294.909L63.6841 318.5C56.9719 329.668 52.92 336.467 50.5266 341.541C50.3983 341.813 50.2752 342.066 50.1671 342.306C50.432 342.338 50.7263 342.371 51.0299 342.402C56.619 342.963 64.5385 343 77.5847 343H375.416C388.451 343 396.359 342.962 401.946 342.402C402.251 342.371 402.543 342.338 402.809 342.306C402.701 342.066 402.578 341.813 402.45 341.541C400.056 336.467 396.004 329.668 389.292 318.5L375.104 294.909L374.337 293.617C360.337 270.133 350.847 244.274 346.32 217.39C355.138 219.4 364.31 220.5 373.738 220.5C381.518 220.5 389.128 219.729 396.506 218.347C400.467 235.992 407.216 252.938 416.518 268.543L417.213 269.691L431.401 293.282L431.976 294.287C437.903 304.146 443.283 313.072 446.86 320.653C450.494 328.357 454.384 338.798 452.516 350.632C450.667 362.331 444.62 372.961 435.523 380.564C426.319 388.255 415.348 390.31 406.86 391.163C398.509 392.001 388.079 392.001 376.566 392H76.4343C64.9148 392.001 54.47 392.002 46.1167 391.163C37.6288 390.31 26.656 388.254 17.4529 380.564C8.3604 372.962 2.33315 362.328 0.484654 350.632C-1.38466 338.797 2.50608 328.358 6.14073 320.653C9.71663 313.074 15.0759 304.142 20.9999 294.287L21.5991 293.282L35.7872 269.691L36.4822 268.543C48.8992 247.711 56.7442 224.485 59.514 200.402L59.6578 199.063L65.8411 143.555C74.9364 61.8364 144.128 0.00333295 226.488 0ZM348.765 55.8428C369.523 79.7889 383.4 109.992 387.135 143.555L387.303 145.038C382.991 146.274 378.448 147 373.738 147C356.871 146.998 341.997 138.5 333.163 125.563C331.169 119.63 328.706 113.931 325.805 108.503C325.064 105.119 324.655 101.606 324.655 98C324.655 80.0499 334.343 64.3774 348.765 55.8428Z" fill="#003972"/>
<path fill-rule="evenodd" clip-rule="evenodd" d="M289.819 458.786C273.367 477.689 251.267 490 226.472 490C201.677 490 179.578 477.689 163.126 458.786C146.789 440.015 136.002 414.948 131.196 388.093C128.813 374.773 137.697 362.046 151.04 359.667C164.383 357.287 177.132 366.156 179.515 379.476C183.099 399.507 190.798 415.871 200.178 426.649C209.443 437.294 218.852 441 226.472 441C234.092 441 243.502 437.294 252.766 426.649C262.146 415.871 269.845 399.507 273.43 379.477C275.813 366.156 288.562 357.287 301.905 359.667C315.247 362.046 324.132 374.773 321.748 388.093C316.943 414.948 306.155 440.015 289.819 458.786Z" fill="#003972"/>
<path d="M422.818 98C422.818 125.062 400.846 147 373.738 147C346.63 147 324.655 125.062 324.655 98C324.655 70.9381 346.627 49 373.735 49C400.843 49 422.818 70.938 422.818 98Z" fill="#003972"/>
<path fill-rule="evenodd" clip-rule="evenodd" d="M447.36 98C447.36 138.593 414.397 171.5 373.735 171.5C333.073 171.5 300.11 138.593 300.11 98C300.11 57.4071 333.073 24.5 373.735 24.5C414.397 24.5 447.36 57.4071 447.36 98ZM373.738 147C400.846 147 422.818 125.062 422.818 98C422.818 70.938 400.843 49 373.735 49C346.627 49 324.655 70.9381 324.655 98C324.655 125.062 346.63 147 373.738 147Z" fill="#003972"/>
</svg>
