<svg width="172" height="172" viewBox="0 0 172 172" fill="none" xmlns="http://www.w3.org/2000/svg">
<path fill-rule="evenodd" clip-rule="evenodd" d="M4.3934 4.3934C10.2513 -1.46447 19.7487 -1.46447 25.6066 4.3934L86 64.7868L146.393 4.3934C152.251 -1.46447 161.749 -1.46447 167.607 4.3934C173.464 10.2513 173.464 19.7487 167.607 25.6066L107.213 86L167.606 146.393C173.464 152.25 173.464 161.748 167.606 167.606C161.748 173.464 152.25 173.464 146.393 167.606L86 107.213L25.6066 167.607C19.7487 173.464 10.2513 173.464 4.3934 167.607C-1.46447 161.749 -1.46447 152.251 4.3934 146.393L64.7868 86L4.3934 25.6066C-1.46447 19.7487 -1.46447 10.2513 4.3934 4.3934Z" fill="#B6B6B6"/>
</svg>
